<?xml version="1.0" encoding="utf-8"?>
<!-- Generator: Adobe Illustrator 24.2.3, SVG Export Plug-In . SVG Version: 6.00 Build 0)  -->
<svg version="1.1" id="Ebene_1" xmlns="http://www.w3.org/2000/svg" xmlns:xlink="http://www.w3.org/1999/xlink" x="0px" y="0px"
	 viewBox="0 0 353.2 152.4" style="enable-background:new 0 0 353.2 152.4;" xml:space="preserve">
<g>
	<path d="M57.2,103.8c7.4-3.1,11.9-10.5,12.1-19.8c0.3-11.9,0.4-43.1,0-55.3c-0.2-9.1-4.4-16.8-12-22.2c-5.4-3.8-11.4-5.7-18.5-5.8
		c-5.3-0.1-10.9-0.1-18.3-0.1c-3,0-6.1,0-9.1,0c-3,0-6.1,0-9.1,0c-0.2,0-0.5,0-0.7,0.1c-0.2,0-0.4,0-0.6,0H0v1v149v1h1h23.3h1v-1
		v-35.6l8.2-2.9L46.4,151l0.2,0.7h0.7h23.6h1.3l-0.3-1.2C71.7,149.7,59.6,111.5,57.2,103.8z M43.9,79.6c-0.1,3.7-2.6,6.1-8.2,7.9
		l-10.2,3V23.6h9.3c6.7,0,9.3,3.3,9.3,11.6C44.3,45.7,44.1,69.3,43.9,79.6z"/>
	<path d="M269.4,32.3c-0.1-9.3-2.9-16.6-8.5-22.3c-6.4-6.4-14.7-9.5-25.3-9.5h-32.3h-2.6h-1v1v149v0.7l0.7,0.2
		c0.3,0.1,0.8,0.3,1.3,0.3c1.5,0,3,0,4.5,0c2.9,0,5.9,0,8.8,0c2.9,0,5.9,0,8.8,0c6,0,10.8-0.1,15.1-0.3
		c18.4-0.8,30.4-13.3,30.5-31.7c0.1-19.4,0-39.2,0-58.3C269.4,51.8,269.4,42,269.4,32.3z M243.7,33.4v84.1c0,7.8-3,10.9-10.8,10.9
		h-7.8c0-34.2,0-69.6-0.1-104.9h8.9c3.2,0,5.7,0.8,7.3,2.4C242.9,27.6,243.7,30.1,243.7,33.4z"/>
	<path d="M155.9,20.9l-2.5-19.2l-0.1-0.9h-0.9h-36.8h-0.9l-0.1,0.9c-6.7,50.3-13.4,101.2-19.6,148.8l-0.1,1.1H96h23.7h0.9l0.1-0.9
		c1.3-12.3,2.6-24.5,3.8-36.6l16.6-6c0.7,6.2,1.6,13.7,2.4,21.1c0.9,7.6,1.8,15.4,2.5,21.5l0.1,0.9h0.9h24.7h1.1l-0.1-1.1
		C167,107.2,161.4,63.3,155.9,20.9z M139,85.2l-12.2,4.4l6-63.8h1.3L139,85.2z"/>
	<polygon points="352.2,128.4 327.2,128.4 327.2,99.2 350.5,92.2 351.2,92 351.2,91.2 351.2,68.1 351.2,66.8 349.9,67.2 327.2,73.5 
		327.2,23.7 352.1,23.7 353.1,23.7 353.1,22.7 353.1,1.7 353.1,0.7 352.1,0.7 302.7,0.7 301.7,0.7 301.7,1.7 301.7,150.6 
		301.7,151.6 302.7,151.6 352.2,151.6 353.2,151.6 353.2,150.6 353.2,129.4 353.2,128.4 	"/>
</g>
</svg>
